<svg xmlns="http://www.w3.org/2000/svg" xmlns:xlink="http://www.w3.org/1999/xlink" width="24" height="24"><defs><path id="a" d="M7.247 9.136l1.9 1.903-6.18 6.185 3.804 3.807 6.18-6.186 1.902 1.903-6.656 6.662A2 2 0 016.77 24a2 2 0 01-1.295-.47l-.132-.12L.59 18.65c-.38-.38-.59-.887-.59-1.427 0-.48.166-.933.47-1.296l.12-.131 6.657-6.661zm7.837-2.134l1.901 1.903-8.068 8.074-1.901-1.903 8.068-8.074zM18.532.457l.124.114L23.41 5.33c.38.38.59.888.59 1.427 0 .48-.165.934-.47 1.296l-.12.132-6.656 6.661-1.902-1.903 6.18-6.186L17.23 2.95l-6.18 6.186-1.902-1.903L15.804.57c.72-.721 1.953-.76 2.728-.114z"/></defs><g fill="none" fill-rule="evenodd"><mask id="b" fill="#fff"><use xlink:href="#a"/></mask><use fill="#000" xlink:href="#a"/><g fill="#1F1F1F" mask="url(#b)"><path d="M0 0h24v24H0z"/></g></g></svg>