<svg width="24" height="24" xmlns="http://www.w3.org/2000/svg"><path d="M7.247 9.136l1.9 1.903-6.18 6.185 3.804 3.807 6.18-6.186 1.902 1.903-6.656 6.662A2 2 0 016.77 24a2 2 0 01-1.427-.59L.59 18.65c-.38-.38-.59-.887-.59-1.427s.21-1.046.59-1.427l6.657-6.661zm7.837-2.134l1.901 1.903-8.068 8.074-1.901-1.903 8.068-8.074zm.72-6.43c.76-.762 2.092-.762 2.852 0l4.754 4.757c.38.38.59.888.59 1.427 0 .54-.21 1.047-.59 1.428l-6.656 6.661-1.902-1.903 6.18-6.186L17.23 2.95l-6.18 6.186-1.902-1.903z" fill="#1f1f1f" fill-rule="evenodd"/></svg>