<svg width="37" height="12" xmlns="http://www.w3.org/2000/svg"><g fill="none"><path d="M7 3.276a46.148 46.148 0 00-1.312 1.321A31.757 31.757 0 014.267 6C2.767 4.628 1.654 4.068 0 3.943V0c2.81.168 4.852 1.24 7 3.276z" fill="#FFF"/><path d="M17.738 0C21.163 0 23.514 1.07 26 3.287c-.087.078-.175.157-.263.238-.325.3-.578.543-1.126 1.078A32.74 32.74 0 0123.107 6c-1.832-1.577-3.118-2.077-5.369-2.077-2.815 0-4.12.783-6.873 3.474-.547.535-.8.778-1.125 1.078C7.155 10.853 4.76 12 1.215 12c-.42 0-.824-.016-1.215-.048V8.016c.376.042.777.06 1.215.06 2.815 0 4.12-.781 6.873-3.473C11.53 1.24 13.668 0 17.738 0zm15.104 6C34.316 7.3 35.43 7.874 37 8.039V12c-2.779-.22-4.838-1.29-7-3.268a47.146 47.146 0 001.364-1.326A32.49 32.49 0 0132.842 6z" fill="#F5A623"/><path d="M35.983 0c.35 0 .688.011 1.016.033v3.93a11.72 11.72 0 00-1.016-.04c-2.838 0-4.153.783-6.928 3.474a49.41 49.41 0 01-1.135 1.078C25.315 10.853 22.901 12 19.328 12c-3.453 0-5.823-1.07-8.328-3.287l.265-.238c.328-.3.583-.543 1.135-1.078A32.901 32.901 0 0113.916 6c1.847 1.577 3.143 2.077 5.412 2.077 2.837 0 4.153-.782 6.928-3.474C29.724 1.24 31.88 0 35.983 0z" fill="#FFF"/></g></svg>