<svg xmlns="http://www.w3.org/2000/svg" xmlns:xlink="http://www.w3.org/1999/xlink" width="24" height="24"><defs><path id="a" d="M23.664.336a1.154 1.154 0 00-1.628 0l-1.125 1.125-.6-.601a.668.668 0 00-.942 0L.983 19.245a.67.67 0 000 .942l.713.713L0 22.596V24h1.403L3.1 22.304l.714.713a.668.668 0 00.942 0L19.333 8.438v1.577l-4.522 4.595.95.935 4.906-4.984V7.105L23.14 4.63a.668.668 0 000-.942l-.6-.6 1.124-1.125a1.154 1.154 0 000-1.628"/></defs><g fill="none" fill-rule="evenodd"><mask id="b" fill="#fff"><use xlink:href="#a"/></mask><use fill="#000" xlink:href="#a"/><g fill="#1F1F1F" mask="url(#b)"><path d="M0 0h24v24H0z"/></g></g></svg>