<svg xmlns="http://www.w3.org/2000/svg" width="108" height="47"><g fill="none" fill-rule="evenodd"><path fill="#F5A623" d="M59.368 38.18a4.946 4.946 0 01-3.71-4.785 4.946 4.946 0 013.71-4.786v-6.346l3.71-4.329 3.711 3.093 3.711-3.711 3.71 3.71 3.711-3.71 3.71 3.71 3.711-3.71 3.71 3.71 3.711-3.71 3.71 3.71 3.711-3.092 3.71 4.33v6.345a4.946 4.946 0 013.711 4.786 4.946 4.946 0 01-3.71 4.785V47H59.368v-8.82z"/><path fill="#1F1F1F" d="M89.053 4.947H74.21c-9.433 0-14.843 5.41-14.843 14.842v2.474l3.71-3.71 3.711 3.71 3.711-3.71 3.71 3.71 3.711-3.71 3.71 3.71 3.711-3.71 3.71 3.71 3.711-3.71 3.71 3.71 3.711-3.71 3.71 3.71V19.79c0-9.432-5.41-14.842-14.841-14.842"/><path fill="#FFF" d="M74.21 36.487a5.573 5.573 0 01-5.565-5.566 5.573 5.573 0 015.566-5.566 5.573 5.573 0 015.565 5.566 5.573 5.573 0 01-5.565 5.566"/><path fill="#1F1F1F" d="M77.303 30.921a3.092 3.092 0 11-6.184.001 3.092 3.092 0 016.184 0"/><path fill="#FFF" d="M89.053 36.487a5.573 5.573 0 01-5.566-5.566 5.573 5.573 0 015.566-5.566 5.573 5.573 0 015.565 5.566 5.573 5.573 0 01-5.565 5.566"/><path fill="#1F1F1F" d="M92.145 30.921a3.092 3.092 0 11-6.184.001 3.092 3.092 0 016.184 0M4.947 19.79c0-4.174 1.063-7.555 3.06-10.033l-3.27-3.27c-.964.6-2.15.934-3.5.934a1.237 1.237 0 010-2.474c2.358 0 3.71-1.352 3.71-3.71a1.237 1.237 0 012.474 0c0 1.35-.335 2.536-.934 3.5l3.27 3.27c2.478-1.997 5.86-3.06 10.032-3.06h14.843c4.173 0 7.554 1.063 10.032 3.06l3.27-3.27c-.6-.964-.934-2.15-.934-3.5a1.237 1.237 0 012.474 0c0 2.358 1.352 3.71 3.71 3.71a1.237 1.237 0 010 2.474c-1.35 0-2.536-.335-3.5-.934l-3.27 3.27c1.997 2.478 3.06 5.86 3.06 10.032V47H4.947V19.79z"/><path fill="#FFF" d="M19.79 36.487a5.573 5.573 0 01-5.566-5.566 5.573 5.573 0 015.565-5.566 5.573 5.573 0 015.566 5.566 5.573 5.573 0 01-5.566 5.566"/><path fill="#1F1F1F" d="M22.882 30.921a3.092 3.092 0 11-6.185 0 3.092 3.092 0 016.185 0"/><path fill="#FFF" d="M34.632 36.487a5.573 5.573 0 01-5.566-5.566 5.573 5.573 0 015.566-5.566 5.573 5.573 0 015.565 5.566 5.573 5.573 0 01-5.565 5.566"/><path fill="#1F1F1F" d="M37.724 30.921a3.092 3.092 0 11-6.184 0 3.092 3.092 0 016.184 0"/></g></svg>