<svg xmlns="http://www.w3.org/2000/svg" width="109" height="47"><g fill="#FFF" fill-rule="evenodd"><path d="M20 24.737c3.446 0 6.25 2.774 6.25 6.184s-2.804 6.184-6.25 6.184-6.25-2.774-6.25-6.184 2.804-6.184 6.25-6.184zm15 0c3.446 0 6.25 2.774 6.25 6.184s-2.804 6.184-6.25 6.184-6.25-2.774-6.25-6.184 2.804-6.184 6.25-6.184zM50 47V19.79c0-4.174-1.074-7.555-3.093-10.033l3.305-3.27c.975.6 2.174.934 3.538.934.69 0 1.25-.554 1.25-1.237s-.56-1.237-1.25-1.237c-2.383 0-3.75-1.352-3.75-3.71C50 .554 49.44 0 48.75 0S47.5.554 47.5 1.237c0 1.35.338 2.536.944 3.5l-3.305 3.27C42.635 6.01 39.217 4.948 35 4.948H20c-4.217 0-7.635 1.063-10.14 3.06l-3.304-3.27c.606-.964.944-2.15.944-3.5C7.5.554 6.94 0 6.25 0S5 .554 5 1.237c0 2.358-1.367 3.71-3.75 3.71-.69 0-1.25.554-1.25 1.237s.56 1.237 1.25 1.237c1.364 0 2.563-.335 3.538-.934l3.305 3.27C6.074 12.235 5 15.617 5 19.789V47h45z"/><path d="M20 28.333a2.667 2.667 0 110 5.334 2.667 2.667 0 010-5.334M20 35c2.206 0 4-1.794 4-4s-1.794-4-4-4-4 1.794-4 4 1.794 4 4 4m15-6.667a2.667 2.667 0 110 5.334 2.667 2.667 0 010-5.334M35 35c2.206 0 4-1.794 4-4s-1.794-4-4-4-4 1.794-4 4 1.794 4 4 4m54-6.667a2.667 2.667 0 110 5.334 2.667 2.667 0 010-5.334M89 35c2.206 0 4-1.794 4-4s-1.794-4-4-4-4 1.794-4 4 1.794 4 4 4m-15-6.667a2.667 2.667 0 110 5.334 2.667 2.667 0 010-5.334M74 35c2.206 0 4-1.794 4-4s-1.794-4-4-4-4 1.794-4 4 1.794 4 4 4"/><path d="M62.75 18.588v-1.49l3.704 3.705 3.796-3.706L74 20.803l3.75-3.706 3.75 3.706 3.75-3.706L89 20.803l3.75-3.706 3.75 3.706 3.75-3.706v1.747l-3.704 3.705-3.796-3.706L89 22.548l-3.75-3.708-3.749 3.702-3.748-3.714-3.747 3.69-3.744-3.738-3.739 3.642-3.727-3.834h-.046zM89 37.118c-3.446 0-6.25-2.771-6.25-6.177 0-3.406 2.804-6.176 6.25-6.176s6.25 2.77 6.25 6.176-2.804 6.177-6.25 6.177zm-15 0c-3.446 0-6.25-2.771-6.25-6.177 0-3.406 2.804-6.176 6.25-6.176s6.25 2.77 6.25 6.176-2.804 6.177-6.25 6.177zm-15-.212c-1.455-.51-2.5-1.884-2.5-3.494 0-1.61 1.045-2.985 2.5-3.494v6.988zm45-6.988c1.455.51 2.5 1.884 2.5 3.494 0 1.61-1.045 2.984-2.5 3.494v-6.988zM104 47v-7.536c2.85-.574 5-3.07 5-6.052 0-2.983-2.15-5.478-5-6.053v-7.535C104 10.404 98.532 5 89 5H74c-9.532 0-15 5.403-15 14.824v7.535c-2.85.575-5 3.07-5 6.053 0 2.982 2.15 5.478 5 6.052V47h45z"/></g></svg>