<svg version="1.0" xmlns="http://www.w3.org/2000/svg" width="1088" height="1088" viewBox="0 0 816 816"><path d="M392.8.5c-.1.1-2.5.5-5.3.9-5 .6-7.8 1.1-12.5 2.2-1.4.3-3 .6-3.7.8-.7.1-1.6.5-1.9.9-.4.4-1.4.7-2.1.7-2.9 0-16.6 6.4-23.6 11-14.4 9.4-27.3 22.7-41.2 42.5-2.7 3.8-5.3 7.4-5.7 8-.5.5-5.1 7.1-10.4 14.5-5.3 7.4-11.6 16-14.1 19-2.4 3-5.8 7.3-7.6 9.4-3.3 4.1-20 21-25.3 25.6-4.7 4.2-16.6 13.4-20.6 16-2.1 1.4-3.8 2.8-3.8 3.2 0 .5-.7.8-1.5.8s-1.5.4-1.5 1c0 .5-.4 1-.9 1-.6 0-2.9 1.3-5.3 2.9-2.4 1.6-8.3 5.1-13.3 7.8l-9 4.8-.2 22.8c-.2 18.1 0 22.7 1.1 22.7 1.5 0 12.7-4.5 17.1-6.8 1.7-.9 3.2-1.6 3.5-1.7 1.6-.2 14.2-7 15.1-8.1.6-.8 1.6-1.4 2.1-1.4.9 0 11.9-6.7 12.8-7.9.3-.3 1.7-1.2 3.3-2 1.5-.8 2.7-1.8 2.7-2.3 0-.4.5-.8 1-.8.6 0 1.6-.5 2.3-1 .7-.6 5.6-4.4 10.9-8.5 22.2-17.2 40.8-36.8 60.1-63.1 2.9-4 5.9-8.2 6.7-9.4.8-1.3 2.5-3.5 3.8-5 1.2-1.5 2.2-3.1 2.2-3.4 0-.4.4-1.2 1-1.9 2.7-3.3 6-7.8 10.2-13.7 5.3-7.6 9.2-12.1 16.5-19.6 10-10.1 19.7-15.2 34.8-18.1 4.8-1 30.8-1.1 35-.2 1.7.4 4.8 1 7 1.4 6.3 1.3 15.4 5.8 22.7 11.3l6.8 5.1 8.7-3c4.9-1.7 9.5-3.2 10.3-3.4.8-.2 1.6-.4 1.8-.5.1-.2.5-.3 1-.5.4-.1 1.8-.6 3.2-1.2 1.4-.5 6-2 10.3-3.3 4.2-1.3 7.7-2.7 7.7-3 0-.9-7-8.9-13-15-5.5-5.6-17.3-15-18.9-15-.6 0-1.1-.4-1.1-.9s-1-1.3-2.2-1.7c-1.3-.3-3-1.2-3.8-1.9-2.6-2.2-20.1-8.3-29-10-7.4-1.5-43-3.1-44.2-2z"/><path d="M224 54.1c-14 2.3-20.2 4.3-34.5 11.5-25 12.5-47.6 33.5-58.9 54.7-3.5 6.6-9 20.7-8 20.7.3 0 0 .8-.5 1.7-1.1 2.2-2.3 8.4-3.6 18.8-.4 2.7-.6 14.7-.5 26.5.5 70.9.4 73-5.6 101.5-.2 1.1-1.3 5.1-2.4 9-1.1 3.8-2.2 7.7-2.4 8.5-.4 1.4-4.4 12.7-6.8 19-.5 1.4-1 2.7-1.1 3 0 .3-1.9 4.1-4 8.5-2.2 4.4-3.9 8.2-3.9 8.5 0 .3-.7 1.4-1.4 2.5-1.9 2.6-1.8 3.6.9 6.7 1.2 1.5 7.2 9.7 13.2 18.2 6.1 8.6 11.2 15.6 11.5 15.6.5 0 2.9-3.7 6.8-11 1.4-2.5 2.9-4.7 3.3-4.8.5-.2.9-.8.9-1.3s2.6-6.4 5.9-13.1c4.9-10.3 8.6-19.3 13.7-33.3 1-2.8 1-2.7 1.8-6 .4-1.7 1.1-3.7 1.5-4.5.5-.9 1.1-2.9 1.5-4.5 1.3-6.1 1.6-7.1 3-12.5.8-3 1.8-7.1 2.1-9 .7-4.4 1.6-9.9 2.1-12.5.2-1.1.7-4.9 1-8.5.3-3.6.8-8.3 1-10.5.4-3.5.5-40.3.2-70.5-.1-10.5.7-23.8 1.7-29.5 2-10.5 6.8-21.3 12.1-27.1 1.9-2 3.4-3.8 3.4-4.1 0-1.4 21.8-18.2 23.8-18.3.6 0 1.2-.5 1.2-1 0-.6.6-1 1.4-1 .8 0 1.6-.4 1.8-.8.3-.8 12.1-6.1 14.8-6.7.8-.2 3.3-.7 5.5-1.3 2.2-.5 5.2-.8 6.8-.8 1.5.1 2.7-.2 2.7-.7 0-.4.4-.6.9-.3s3.4.8 6.4 1l5.5.4 7.8-10.7c4.3-5.8 8.1-10.8 8.6-10.9.4-.2.8-.8.8-1.4 0-.6 1.8-3.2 4-5.8 2.2-2.6 4-5.2 4-5.8 0-.6.6-1.2 1.3-1.5 2.8-1-2.5-3.2-12.7-5.3-12.1-2.4-28.5-2.9-38.6-1.3zm340.5.8c-.3.2-1.3.6-2.3.7-5.4.6-9.8 1.5-17.3 3.4-10.4 2.7-10.1 2.6-11.9 3.3-2.8 1-41.5 13.9-43 14.2-.8.2-5.2 1.5-9.7 2.8-4.6 1.4-8.3 2.3-8.3 2 0-.2-.9.1-2 .7-1 .6-3.2 1.2-4.7 1.5-1.5.2-4.8.9-7.3 1.5-2.5.5-6.7 1.2-9.5 1.5-2.7.3-5.6.8-6.4 1-6.9 2.5-55.1 2.5-66.7.1-1.2-.2-4.3-.7-7-1l-4.9-.7L359 92c-2.5 3.4-5.1 6.8-5.7 7.5-.7.7-1.3 1.6-1.3 2 0 .4-.6 1.2-1.2 1.9-1.4 1.3-1.8 1.9-9.9 13.1l-5.1 7 5.4 1.2c15.2 3.5 22.1 4.8 31.8 5.8 2.5.3 6.3.8 8.5 1.2 5 .8 49.6 1.2 51 .4.6-.3 2.6-.6 4.5-.8 1.9-.1 5.8-.5 8.5-.8 2.8-.4 6.4-.9 8-1.1 1.7-.2 7.5-1.3 13-2.5 12.9-2.7 12-2.5 19-4.4 3.3-.9 6.5-1.8 7-1.9 1.5-.3 3.7-1 35-11.2 16-5.1 31.7-10 35-10.7 7.2-1.7 23.9-2 29.1-.6 2 .6 4.4 1.2 5.3 1.4 9.3 1.8 27.9 13.6 39.5 25.1 8.3 8.3 13 17.2 16.4 31.4.8 3.5.9 3.5 14.3 7.8 7.4 2.4 14.1 4.6 14.9 4.9.8.3 2 .7 2.5.8.6 0 1.7.4 2.5.7 8.2 3.3 11.2 3.5 10.6.5-.3-1.2-.8-5.4-1.1-9.2-.2-3.9-.9-8.6-1.3-10.5-.5-2-.7-4.6-.6-5.8.2-1.2-.1-2.2-.6-2.2-.6 0-1-1-1-2.3 0-3.7-4.6-16.3-8.6-23.6-6.8-12.5-18.2-25.3-30.9-34.6-2.2-1.7-4.2-3.2-4.5-3.5-3.4-3.6-26.1-16.2-33.2-18.5l-3.3-1.1c-2.2-.7-15.9-4.3-16.4-4.2-.3 0-.9-.1-1.3-.2-1.4-.5-29.8-.6-30.3-.1z"/><path d="M553.5 121.6c-3.8 1.4-7.4 2.6-8 2.8-.5.1-3.5 1-6.5 2.1-3 1-5.5 1.6-5.6 1.4 0-.2-.8.2-1.7 1-1 .7-1.7 1.1-1.7.7 0-.4-1.3 0-2.9.8-1.5.8-4.1 1.7-5.6 2-1.6.3-3.2.9-3.7 1.4-2 2 27.5 31.7 44.1 44.2 1.8 1.4 3.8 3 4.4 3.6 2 1.7 20.8 14.7 27.7 19.1 7.8 4.8 26.2 13.9 37.5 18.3 6.4 2.6 45 15.9 49 17 .6.1 1.5.4 2 .6 25.2 8.3 26.7 8.9 35.8 13.5 10.5 5.3 17.9 10.9 22.7 17.2 2.2 2.9 4.4 5.6 4.8 6.2 3 3.9 9 19 11.7 29.5 1.2 5 2.9 16 2.7 18.5-.6 10.3-2.9 20.8-5.7 26.1-1.7 3.4-1.9 5.4-.5 5.4.6 0 1 .5 1 1.1 0 .6.6 1.6 1.3 2.4.6.7 6.2 8.3 12.2 16.9 6.1 8.5 11.2 15.6 11.5 15.6 1.5 0 13.2-22 16.1-30.2 1.1-3.5 2.4-7 2.7-7.8.3-.8.6-2.2.8-3 .2-.8 1-4.6 1.8-8.4 1.4-7 1.6-28.7.2-35.1-.4-1.7-1.1-5.3-1.7-8.2-.6-2.9-2.1-8.5-3.4-12.5-7.5-23.5-15.5-37.9-28.5-50.9-8.6-8.7-16-13.9-28.6-20.3-7.9-4-24.7-10.9-30.6-12.5-.4-.2-3.1-1.1-6-2.2s-6.2-2.2-7.2-2.4c-2.3-.5-14.2-4.3-17.1-5.4-3.3-1.3-11.9-4.2-13.5-4.6-3.7-.9-13.4-4.6-14.6-5.6-.8-.6-1.4-.9-1.4-.6 0 .7-7.4-2.3-13.2-5.3-2.1-1.1-3.8-1.7-3.8-1.4 0 .4-.6.1-1.3-.5-.8-.6-4-2.5-7.3-4.2-6.4-3.4-28.1-17.6-30.4-19.9-.3-.3-2.5-2.1-5-4-8.1-6.2-9.9-7.9-21.5-19l-6-5.8-7 2.4zm-462.4 84c-2.9 1.3-6 2.4-6.7 2.4-.8 0-1.4.3-1.4.7 0 .9-4.9 3.3-6.7 3.3-.7 0-1.3.4-1.3.8 0 .5-1.2 1.4-2.7 2.1-8 3.6-23.5 16.8-30.3 25.6-6.2 8-14 22.7-17.7 33-.6 1.6-1.4 3.9-1.9 5-.4 1.1-.8 2.4-.9 3-.2.5-1.2 4.1-2.3 8-2.3 7.8-3.4 13-3.6 16-.1 1.1-.4 2.4-.8 3-1.1 1.8-.2 30.9 1.1 35.5.7 2.5 2 7 2.8 10 1.8 6.2 8.3 21.3 9.5 21.8.5.2.8.9.8 1.6 0 1.2 10.8 18.2 13.7 21.6 6.5 7.6 36.3 49.4 40.4 56.5 11.2 19.7 16.3 30.9 22.4 48.7 2.5 7.5 4.8 14.6 5 15.7.3 1.2.7 2.9 1 3.9 1.2 4.6 4.5 21.6 4.7 24.2.1 1.8 1 3.2 2.3 3.8 1.6.8 21.5 7.3 23.5 7.7.3.1 4.4 1.3 9.1 2.8 4.8 1.5 9 2.7 9.3 2.7.6 0 .1-8.8-.8-17.2-.7-5.1-2.2-15-3.1-19.1-.2-1.2-.6-3.3-.9-4.7-.4-3-4.5-18.9-5.3-21-.4-.8-.7-1.7-.7-2-.2-1.1-2.9-9.6-3.6-11.5-.5-1.1-1.8-4.7-3-8-4.9-13-11.7-27.9-18.8-40.7-3.8-6.8-19.2-30.5-22.1-34-2.8-3.3-15.1-19.9-15.1-20.4 0-.3-.9-1.4-2-2.6-4.2-4.5-17-23.6-20.5-30.6-7.3-14.6-9.1-30.2-5.4-46.4 1.9-8.4 2.1-9.1 3.2-11.8.3-.8 1.1-3.3 1.8-5.5 2.2-7.3 8.9-19 14-24.9C83 259.2 93.7 251 95.9 251c1.3 0 1.2 1.2 1.3-26.2.1-11.5 0-21-.3-21.2-.2-.2-2.8.7-5.8 2z"/><path d="M656.5 257.9c.3 3.8.7 8.6 1 10.7.9 7.3 1.5 10.9 2 13.4.3 1.4 1 5.1 1.5 8.2 4.6 25.2 19 63.1 32.9 86.6 1.7 2.9 3.1 5.5 3.1 5.7 0 .8 8.4 13 9.2 13.3.4.2.8.9.8 1.5 0 .7 1.9 3.7 4.3 6.8 2.3 3.1 5 6.7 5.9 8 8.8 12 19.1 25.8 20.4 27.4 3.3 4.2 11.4 16.5 11.4 17.4 0 .5.3 1.1.8 1.3 2.7 1.2 10 23.1 10.3 31 .2 5-.9 15.6-2.1 19.8-.7 2.5-1.4 5.6-1.7 7-.9 5.3-8.5 22.8-12.3 28.6-2.1 3.3-6.1 8.1-8.8 10.5-4.9 4.5-6.1 5.4-11.9 8.9-1.8 1.1-3.3 2.5-3.4 3.2 0 .7-.1 11.1-.2 23.1-.2 20.1-.1 21.7 1.6 21.7.9 0 2.5-.4 3.5-.9.9-.5 7-3.5 13.5-6.7 6.4-3.1 11.7-6.1 11.7-6.6 0-.4.5-.8 1.1-.8 2.6 0 24.9-20.2 24.9-22.5 0-.3 1.5-2.7 3.4-5.4 8.5-12 17.9-36 21.2-53.9.2-1.2.7-3.4 1-5 1.1-5 1.3-27.6.3-32.7-.6-2.8-1.2-6.1-1.4-7.5-.2-1.4-.8-3.6-1.3-5s-1-2.8-1-3.3c-.5-6.7-18.4-39.3-26.4-48.1-1-1.1-3-3.8-4.5-6-1.5-2.3-3-4.3-3.3-4.6-.9-.8-19.4-26.2-22.7-31-11.1-16.6-27.3-48.2-26.3-51.6.1-.4-.2-1-.7-1.3-.8-.5-4.8-12.5-7.4-21.9-.5-1.7-1.4-4.9-1.9-7-.6-2-1.3-5.1-1.5-6.7-.3-1.7-.9-5.3-1.5-8-.5-2.8-1.2-6.3-1.4-7.9-.6-3.3-.7-3.5-3.2-4.1-1.1-.2-5.9-1.7-10.9-3.3-14.4-4.8-28.7-9.2-29.6-9.2-.5 0-.7 3.1-.4 6.9zM35.8 428.8c-3 3.5-14.2 24.2-13.2 24.2.4 0 0 1-.8 2.2-.8 1.3-1.8 3.4-2.2 4.8-.3 1.4-1.3 5-2.2 8-2.4 8.6-2.9 13.6-2.8 26 0 16.8 2.2 29.6 7.4 43.5 8.5 22.7 15.5 34.3 28.3 46.9 6.9 6.8 22.4 17.6 25.1 17.6.8 0 1.6.4 1.8.9.3.9 21.1 10.1 22.9 10.1.5 0 1.7.4 2.7 1 .9.5 8.9 3.3 17.7 6.1 14.2 4.4 24.9 8 29.5 9.7.8.3 2 .6 2.5.8 3 .9 18.1 6.7 25.3 9.7 15.9 6.8 38.9 21.3 55.7 35.1 4.1 3.4 17.5 15.7 21.9 20.2.9 1 18.4-4.3 43.4-13.1 1-.4.8-1.2-.8-3.5-4.4-6.1-28.8-29.8-39.5-38.4-6-4.8-11.8-9.4-12.8-10.2-.9-.8-1.9-1.4-2.2-1.4-.3 0-3.6-2.3-7.4-5-3.8-2.8-7.4-5-8-5-.6 0-1.1-.4-1.1-.8 0-.5-1-1.4-2.2-2-1.3-.6-4.3-2.3-6.8-3.7-17.3-10-39.6-19.1-69.5-28.5-18.5-5.8-34.1-11.1-35.7-12-1-.6-2.2-1-2.7-1-1.5 0-16-7-16.6-8.1-.4-.5-1.1-.7-1.6-.4-.5.4-.9.2-.9-.4 0-.5-.8-1.2-1.9-1.6-5.5-1.7-18.3-17.1-22.6-27.1-2.7-6.3-6.4-17.4-5.8-17.4.3 0 .1-.6-.5-1.3-2.5-3.1-4-23.2-2.2-31.2 1.4-6.8 1.7-7.8 3.9-13.4l2.2-5.4-4.6-6.6c-2.4-3.6-6-8.6-7.7-11.1-1.8-2.4-5.8-7.9-8.9-12.2-5.2-7.2-5.7-7.6-7.1-6z"/><path d="M694.2 437.7c-3.3 6-7.6 13.9-9.4 17.8-1.8 3.8-3.6 7.1-4 7.3-.5.2-.8 1-.8 1.8s-.9 3.3-1.9 5.7c-1.6 3.6-3 6.9-3.6 8.7-.1.3-.5 1.2-.8 2-1.8 4.2-9.1 27.6-10.2 33-.2.8-1.1 4.6-2 8.5-.9 3.8-1.8 8.1-2 9.5-.5 4.3-1.7 12.4-2.1 15-1.5 9.5-2.7 67-1.4 67 .3 0 .4 5.7.2 12.7-.1 7.1-.2 13.7-.1 14.8.1 3.6.1 3.9-.6 9-1.6 13.9-4.3 22.2-9.6 30.2-4 6.2-15.9 17.8-22.2 21.8-1.8 1.1-4 2.7-5 3.6-2.6 2.3-19.5 10.6-24.2 11.8-2.2.6-6 1.3-8.4 1.6-2.3.3-4.7.8-5.2 1.1-.5.3-.9.2-.9-.3 0-1.1-10.2-.9-12 .2-1.4.9-20.8 26.5-25.2 33.2-1.8 2.8-.9 4.8 2.1 4.9.9.1 3 .4 4.6.8 14.9 3.3 34.8 4.3 46.5 2.1 8.4-1.5 29.3-8.6 31-10.5.3-.4 2.1-1.4 4-2.3 1.9-1 4.9-2.7 6.5-3.7 1.7-1.1 3.7-2.3 4.5-2.7.8-.3 1.7-.9 2-1.2.3-.4 3.2-2.6 6.5-5.1 17.7-13.1 30.4-28.1 38.4-45.4 3.1-6.8 7.3-20.5 8.6-28.1 1.6-9.2 1.6-10.7 1.2-75.5-.1-14.5.7-32.3 1.7-38 .3-1.4.7-4.3 1-6.5.3-2.2.8-5.1 1.1-6.5.3-1.4.7-3.4.9-4.5 2.9-14.4 11.5-39.2 18.6-54.3 5.5-11.3 6.2-14.6 4-16.2-.4-.3-2-2.4-3.6-4.7-9-12.9-21-29.3-21.5-29.3-.3 0-3.3 4.8-6.7 10.7z"/><path d="M627.5 598.5c-2.8 1.3-8.4 3.7-9.5 4-1.5.3-15.2 7.3-19.5 9.9-7.4 4.4-13.8 8.4-15.2 9.6-.7.6-3 2-5 3.2-2.1 1.2-4 2.5-4.3 2.8-.4.5-4.1 3.3-9.5 7.2-.5.4-3.2 2.6-6 4.8-23.5 19.3-40.1 37.3-61.2 66.8-6.2 8.6-11.8 16.5-12.5 17.4-.7 1-2.4 3.4-3.8 5.4-12.1 17.4-24.5 30.1-34 34.9-1.9 1-3.8 2.2-4.1 2.7-.3.5-1 .9-1.5.9s-2.5.4-4.4 1c-12.5 3.8-34.3 4.9-47.6 2.4-12.2-2.4-24.3-8.2-30.6-14.8l-2.7-2.8-21.8 7.2c-12 4-22 7.4-22.2 7.6-1.2.9 14.8 17.9 21.9 23.3 1.8 1.4 3.8 3 4.4 3.5 3 2.9 20 12.2 23.6 13.1.3 0 1.2.3 2 .7 2.5 1 16.4 4.5 18 4.5.8 0 2.6.4 4 .7 1.4.4 10.2.8 19.5 1 19.9.3 30.6-1 44.7-5.5 3.7-1.1 7.1-2 7.4-2 .4.1 1-.2 1.3-.7.3-.4 3.3-2.2 6.6-3.8 11.9-5.9 27.6-19.6 39.6-34.5 2.5-3.1 11.2-15 19.3-26.5 8.2-11.6 15.5-21.5 16.2-22.1.8-.6 1.4-1.5 1.4-2.1 0-.5 1.3-2.2 2.8-3.9 1.5-1.6 4.3-4.9 6.2-7.4 4.7-6 21.9-23.3 29.8-29.8 10.7-8.9 27.3-20.7 34.7-24.8 1.7-.9 3.7-2.2 4.5-2.8.8-.7 4-2.3 7-3.6 3-1.3 5.7-2.6 6-2.8.3-.2.6-9.3.7-20.3.1-11 .3-21.2.5-22.7.4-3.3-2.1-4-6.7-1.7z"/><path d="M119.5 645c.2 1.1.6 2.4 1 2.9.3.5.1 1.2-.5 1.6-.6.4-.8 1-.5 1.5.6 1.1 1.7 8.7 1.9 14 0 1.9.4 3.7.7 4 .4.3.9 2.1 1.2 4 1.2 9.3 9.9 29.5 15.1 35.4 1.4 1.6 2.6 3.2 2.6 3.5 0 1.8 15.9 16.7 25 23.4 3.6 2.7 7.2 5.3 8.1 6 7.4 5.7 29.1 15.8 36.9 17.3 1.4.2 3.1.7 3.8.9 5.3 1.9 29.6 2.7 39.2 1.3 5.6-.8 15-2.7 17-3.5.8-.3 2.4-.8 3.5-1 1.1-.2 6.5-1.8 12-3.5s10.5-3.3 11-3.4c.6-.2 8.4-2.8 17.5-5.9 9.1-3 17.2-5.7 18-5.9.8-.2 2.2-.6 3-.9.8-.3 3.8-1.1 6.5-1.7 2.8-.7 5.7-1.4 6.5-1.6.8-.2 4.4-1 8-1.8 5.8-1.3 8.5-1.8 18-3.2 16-2.5 51.2-2.4 68 .1 1.4.2 4.3.6 6.5 1 3.9.6 4.1.5 8.3-4.9 2.3-3.1 4.2-5.9 4.2-6.2 0-.3.6-1.1 1.3-1.8.6-.7 2.1-2.5 3.2-4 3.3-4.6 10.3-13.9 12.5-16.8 1.1-1.5 1.6-2.9 1.1-3.2-.9-.6-11.1-3.1-16.6-4-1.6-.3-4.1-.8-5.5-1.2-1.4-.3-3.2-.6-4-.6-.8 0-3.5-.4-6-.8-16.7-3-60.9-3.3-77-.5-1.4.2-4.3.7-6.5 1-5.9.8-9.8 1.5-11.5 2-.8.2-3.1.7-5 1-1.9.3-7.8 1.7-13 3.1-5.2 1.4-10.2 2.7-11 2.8-.8.2-2.3.6-3.2 1-.9.4-2.5.9-3.5 1.1-1 .2-1.8.4-1.8.5 0 .1-.9.3-2 .5-1 .2-2.8.8-4 1.4-1.9.9-17.4 6-20.5 6.6-.8.2-4.6 1.5-8.5 2.9-7.1 2.5-22.5 7.3-26.7 8.2-1.3.3-6.5.8-11.7 1.1-13.2.7-26.2-2-33.6-7.1-1.6-1.2-3.1-1.9-3.2-1.6-.4.9-17.7-11.7-22.4-16.3-9.8-9.6-13.9-16.4-17.4-29.2l-2.2-8-14.4-4.7c-7.9-2.6-17.2-5.7-20.5-6.8-7.9-2.6-9.4-2.6-8.9 0z"/></svg>