<svg xmlns="http://www.w3.org/2000/svg" xmlns:xlink="http://www.w3.org/1999/xlink" width="24" height="24"><defs><path id="a" d="M16 13a1 1 0 110-2 1 1 0 010 2m-4 0a1 1 0 110-2 1 1 0 010 2m-4 0a1 1 0 110-2 1 1 0 010 2m4-13C5.372 0 0 5.373 0 12c0 3.314 1.343 6.314 3.514 8.486L0 24h12c6.628 0 12-5.372 12-12 0-6.627-5.372-12-12-12"/></defs><g fill="none" fill-rule="evenodd"><mask id="b" fill="#fff"><use xlink:href="#a"/></mask><use fill="#000" xlink:href="#a"/><g fill="#1F1F1F" mask="url(#b)"><path d="M0 0h24v24H0z"/></g></g></svg>